<?xml version="1.0" standalone="no"?>
<!DOCTYPE svg PUBLIC "-//W3C//DTD SVG 20010904//EN"
 "http://www.w3.org/TR/2001/REC-SVG-20010904/DTD/svg10.dtd">
<svg width="100%" height="100%" viewBox="0 0 512 116" fill="none"
  xmlns="http://www.w3.org/2000/svg">
  <g transform="matrix(1,0,0,1,6,82.9995)">
    <path d="M196.315,9.061C196.315,10.517 193.056,11.245 186.539,11.245C180.022,11.245 176.486,10.725 175.931,9.685L158.563,-22.763L158.563,9.581C158.563,10.829 155.356,11.453 148.943,11.453C142.53,11.453 139.323,10.829 139.323,9.581L139.323,-59.995C139.323,-61.035 142.062,-61.555 147.539,-61.555C149.688,-61.555 152.202,-61.365 155.079,-60.983C157.956,-60.602 159.707,-59.891 160.331,-58.851L176.971,-26.819L176.971,-59.475C176.971,-60.793 180.195,-61.451 186.643,-61.451C193.091,-61.451 196.315,-60.793 196.315,-59.475L196.315,9.061Z" style="fill:white;fill-rule:nonzero;"/>
    <path d="M245.507,8.541C241.139,11.106 235.523,12.389 228.659,12.389C221.795,12.389 216.006,10.049 211.291,5.369C206.576,0.689 204.219,-5.794 204.219,-14.079C204.219,-22.365 206.49,-29.038 211.031,-34.099C215.572,-39.161 221.31,-41.691 228.243,-41.691C235.176,-41.691 240.532,-39.923 244.311,-36.387C248.09,-32.851 249.979,-28.553 249.979,-23.491C249.979,-12.259 243.531,-6.643 230.635,-6.643L223.459,-6.643C223.459,-4.563 224.031,-3.125 225.175,-2.327C226.319,-1.53 228,-1.131 230.219,-1.131C235.072,-1.131 239.683,-2.241 244.051,-4.459C244.12,-4.529 244.432,-4.043 244.987,-3.003C246.651,-0.022 247.483,2.491 247.483,4.537C247.483,6.582 246.824,7.917 245.507,8.541ZM232.507,-21.515C232.507,-24.427 231.086,-25.883 228.243,-25.883C226.926,-25.883 225.799,-25.485 224.863,-24.687C223.927,-23.89 223.459,-22.729 223.459,-21.203L223.459,-17.979L229.075,-17.979C231.363,-17.979 232.507,-19.158 232.507,-21.515Z" style="fill:white;fill-rule:nonzero;"/>
    <path d="M261.263,5.213C256.93,0.429 254.763,-6.193 254.763,-14.651C254.763,-23.11 256.93,-29.731 261.263,-34.515C265.596,-39.299 271.438,-41.691 278.787,-41.691C286.136,-41.691 291.96,-39.299 296.259,-34.515C300.558,-29.731 302.707,-23.11 302.707,-14.651C302.707,-6.193 300.558,0.429 296.259,5.213C291.96,9.997 286.136,12.389 278.787,12.389C271.438,12.389 265.596,9.997 261.263,5.213ZM278.839,-24.323C274.922,-24.323 272.963,-21.134 272.963,-14.755C272.963,-8.377 274.922,-5.187 278.839,-5.187C282.756,-5.187 284.715,-8.377 284.715,-14.755C284.715,-21.134 282.756,-24.323 278.839,-24.323Z" style="fill:white;fill-rule:nonzero;"/>
    <path d="M314.147,-26.819L309.051,-26.819C308.011,-26.819 307.491,-29.125 307.491,-33.735C307.491,-38.346 308.011,-40.651 309.051,-40.651L314.147,-40.651L314.147,-42.939C314.147,-50.289 315.69,-55.367 318.775,-58.175C321.86,-60.983 326.176,-62.387 331.723,-62.387C337.27,-62.387 342.158,-61.382 346.387,-59.371C346.942,-59.163 347.219,-58.418 347.219,-57.135C347.219,-55.853 346.63,-53.79 345.451,-50.947C344.272,-48.105 343.267,-46.475 342.435,-46.059C340.078,-47.515 337.651,-48.243 335.155,-48.243C332.451,-48.243 331.099,-46.441 331.099,-42.835L331.099,-40.651L339.731,-40.651C340.979,-40.651 341.603,-38.433 341.603,-33.995C341.603,-29.142 340.806,-26.715 339.211,-26.715L332.555,-26.715L332.555,10.101C332.555,10.933 329.487,11.349 323.351,11.349C317.215,11.349 314.147,10.933 314.147,10.101L314.147,-26.819Z" style="fill:white;fill-rule:nonzero;"/>
    <path d="M385.803,8.541C381.435,11.106 375.819,12.389 368.955,12.389C362.091,12.389 356.302,10.049 351.587,5.369C346.872,0.689 344.515,-5.794 344.515,-14.079C344.515,-22.365 346.786,-29.038 351.327,-34.099C355.868,-39.161 361.606,-41.691 368.539,-41.691C375.472,-41.691 380.828,-39.923 384.607,-36.387C388.386,-32.851 390.275,-28.553 390.275,-23.491C390.275,-12.259 383.827,-6.643 370.931,-6.643L363.755,-6.643C363.755,-4.563 364.327,-3.125 365.471,-2.327C366.615,-1.53 368.296,-1.131 370.515,-1.131C375.368,-1.131 379.979,-2.241 384.347,-4.459C384.416,-4.529 384.728,-4.043 385.283,-3.003C386.947,-0.022 387.779,2.491 387.779,4.537C387.779,6.582 387.12,7.917 385.803,8.541ZM372.803,-21.515C372.803,-24.427 371.382,-25.883 368.539,-25.883C367.222,-25.883 366.095,-25.485 365.159,-24.687C364.223,-23.89 363.755,-22.729 363.755,-21.203L363.755,-17.979L369.371,-17.979C371.659,-17.979 372.803,-19.158 372.803,-21.515Z" style="fill:white;fill-rule:nonzero;"/>
    <path d="M415.963,10.517C415.963,11.141 412.427,11.453 405.355,11.453C399.808,11.383 397.035,11.106 397.035,10.621L397.035,-60.203C397.035,-61.243 400.398,-61.763 407.123,-61.763C413.016,-61.555 415.963,-61.209 415.963,-60.723L415.963,10.517Z" style="fill:white;fill-rule:nonzero;"/>
    <path d="M444.355,10.725C444.355,11.279 441.183,11.557 434.839,11.557C428.495,11.557 425.323,11.314 425.323,10.829L425.323,-40.235C425.323,-40.721 428.495,-40.963 434.839,-40.963C441.183,-40.963 444.355,-40.755 444.355,-40.339L444.355,10.725ZM444.355,-46.475C444.355,-45.99 441.183,-45.747 434.839,-45.747C428.495,-45.747 425.323,-45.955 425.323,-46.371L425.323,-61.347C425.323,-62.041 428.495,-62.387 434.839,-62.387C441.183,-62.387 444.355,-62.179 444.355,-61.763L444.355,-46.475Z" style="fill:white;fill-rule:nonzero;"/>
    <path d="M455.899,-7.371C461.515,-3.974 465.952,-2.275 469.211,-2.275C471.291,-2.275 472.331,-3.003 472.331,-4.459C472.331,-5.499 470.528,-6.851 466.923,-8.515C458.256,-12.051 453.923,-17.841 453.923,-25.883C453.923,-31.014 455.795,-34.931 459.539,-37.635C463.283,-40.339 467.772,-41.691 473.007,-41.691C478.242,-41.691 482.679,-41.137 486.319,-40.027C489.959,-38.918 491.779,-37.462 491.779,-35.659C491.779,-34.134 491.034,-32.123 489.543,-29.627C488.052,-27.131 487.03,-25.779 486.475,-25.571C483.494,-27.235 480.27,-28.067 476.803,-28.067C474.931,-28.067 473.995,-27.409 473.995,-26.091C473.995,-25.259 474.359,-24.549 475.087,-23.959C475.815,-23.37 477.15,-22.642 479.091,-21.775C481.032,-20.909 482.644,-20.129 483.927,-19.435C485.21,-18.742 486.648,-17.771 488.243,-16.523C491.571,-13.889 493.235,-10.457 493.235,-6.227C493.235,-0.681 491.398,3.809 487.723,7.241C484.048,10.673 478.502,12.389 471.083,12.389C466.16,12.389 461.688,11.557 457.667,9.893C453.646,8.229 451.635,5.941 451.635,3.029C451.635,1.087 452.103,-0.958 453.039,-3.107C453.975,-5.257 454.928,-6.678 455.899,-7.371Z" style="fill:white;fill-rule:nonzero;"/>
  </g>
  <g id="g4088" transform="matrix(4.06761,-0.662948,0.662948,4.06761,-4535.93,-1559.89)">
    <path id="path4045" d="M1038.24,565.16C1039.34,565.16 1039.89,564.61 1039.89,563.509C1039.89,562.478 1039.34,561.927 1038.24,561.927C1037.21,561.927 1036.11,562.478 1036.11,563.509C1036.11,564.61 1037.21,565.16 1038.24,565.16ZM1033.91,579.26C1031.23,579.81 1029.36,578.308 1028.22,577.461C1026.85,576.448 1025.38,575.896 1026.64,573.899C1026.74,573.736 1027.08,570.558 1028.33,572.502C1028.33,574.083 1030.68,574.927 1032.26,574.927C1036.11,575.477 1036.59,574.927 1036.11,573.345C1035.56,570.594 1034.46,570.044 1032.81,570.044C1031.51,569.708 1029.93,568.908 1028.99,569.656C1026.58,571.563 1026.91,569.019 1026.89,569.012C1023.59,565.71 1025.5,562.626 1028.18,562.076C1034.17,560.975 1035.01,557.594 1038.79,556.494C1042.03,555.393 1044.78,556.494 1046.36,558.626C1046.91,558.076 1047.61,557.278 1048.56,556.494C1050.03,555.279 1050.55,554.784 1051.31,557.594C1052.89,564.61 1051.86,569.493 1050.21,575.477C1050.21,577.678 1050.76,579.26 1051.86,579.81" style="fill:rgb(245,158,11);"/>
  </g>
</svg>
